<?xml version="1.0" encoding="UTF-8" standalone="no"?><!DOCTYPE svg PUBLIC "-//W3C//DTD SVG 1.1//EN" "http://www.w3.org/Graphics/SVG/1.1/DTD/svg11.dtd"><svg width="100%" height="100%" viewBox="0 0 91 17" version="1.1" xmlns="http://www.w3.org/2000/svg" xmlns:xlink="http://www.w3.org/1999/xlink" xml:space="preserve" xmlns:serif="http://www.serif.com/" style="fill-rule:evenodd;clip-rule:evenodd;stroke-linejoin:round;stroke-miterlimit:1.41421;"><rect id="Artboard2" x="0" y="0" width="90.986" height="16.934" style="fill:none;"/><g><path d="M13.406,9.454c0,1.826 1.536,3.195 3.271,3.195c1.095,0 1.886,-0.426 2.449,-1.278c0.107,-0.152 0.031,-0.304 -0.106,-0.426l-0.913,-0.791c-0.091,-0.076 -0.228,-0.045 -0.335,0.061c-0.243,0.244 -0.502,0.472 -1.034,0.472c-0.67,0 -1.187,-0.548 -1.187,-1.233c0,-0.669 0.548,-1.232 1.217,-1.232c0.35,0 0.67,0.167 0.883,0.396c0.076,0.076 0.258,0.106 0.334,0.03l0.913,-0.867c0.137,-0.122 0.183,-0.289 0.076,-0.426c-0.578,-0.7 -1.323,-1.096 -2.282,-1.096c-1.734,0 -3.286,1.4 -3.286,3.195Z" style="fill-rule:nonzero;"/><path d="M19.857,10.641c0,1.202 0.897,2.008 2.099,2.008c0.959,0 1.491,-0.441 1.841,-0.76l0.213,0.411c0.076,0.167 0.183,0.197 0.274,0.197l0.669,0c0.153,0 0.29,-0.137 0.29,-0.289l0,-3.362c0,-1.795 -0.685,-2.587 -2.572,-2.587c-0.821,0 -1.886,0.183 -2.023,0.229c-0.137,0.045 -0.274,0.152 -0.228,0.41l0.137,0.959c0.03,0.228 0.136,0.396 0.365,0.319c0.395,-0.121 1.11,-0.228 1.521,-0.228c0.73,0 0.822,0.305 0.822,0.898c0,0 -0.487,-0.244 -1.172,-0.244c-1.384,0 -2.236,0.868 -2.236,2.039Zm1.978,-0.152c0,-0.35 0.289,-0.639 0.654,-0.639c0.365,0 0.654,0.289 0.669,0.639c0,0.365 -0.304,0.669 -0.669,0.669c-0.365,0 -0.654,-0.304 -0.654,-0.669Z" style="fill-rule:nonzero;"/><path d="M26.657,9.454c0,1.735 0.868,3.195 2.678,3.195c1.172,0 1.659,-0.547 2.054,-0.928l0.228,0.563c0.046,0.107 0.152,0.213 0.289,0.213l0.715,0c0.153,0 0.29,-0.137 0.29,-0.289l0,-5.507c0,-0.168 -0.137,-0.289 -0.29,-0.289l-1.551,0c-0.153,0 -0.32,0.045 -0.32,0.289l0,2.906c0,0.517 -0.319,1.08 -0.913,1.08c-0.624,0 -0.973,-0.548 -0.973,-1.172l0,-2.814c0,-0.168 -0.137,-0.289 -0.29,-0.289l-1.627,0c-0.153,0 -0.29,0.121 -0.29,0.289l0,2.753Z" style="fill-rule:nonzero;"/><path d="M34.554,12.208c0,0.152 0.137,0.289 0.289,0.289l1.673,0c0.152,0 0.289,-0.137 0.289,-0.289l0,-10.072c0,-0.152 -0.137,-0.289 -0.289,-0.289l-1.673,0c-0.152,0 -0.289,0.137 -0.289,0.289l0,10.072Z" style="fill-rule:nonzero;"/><path d="M38.768,12.208c0,0.152 0.137,0.289 0.289,0.289l1.309,0c0.258,0 0.73,0.076 0.73,-0.289l0,-3.864l2.16,0l0,3.864c0,0.152 0.122,0.289 0.289,0.289l1.659,0c0.167,0 0.289,-0.137 0.289,-0.289l0,-5.507c0,-0.168 -0.122,-0.289 -0.289,-0.289l-4.108,0l0,-1.4c0,-0.837 0.471,-1.217 0.958,-1.217c0.548,0 1.37,0.38 1.37,0.38c0.197,0.091 0.304,0.031 0.426,-0.198l0.654,-1.247c0.076,-0.152 0.03,-0.335 -0.122,-0.411c-0.426,-0.228 -1.384,-0.624 -2.358,-0.624c-1.902,0 -3.256,1.4 -3.256,3.302l0,1.415l-0.319,0c-0.168,0 -0.29,0.121 -0.29,0.289l0,1.354c0,0.152 0.122,0.289 0.29,0.289l0.319,0l0,3.864Z" style="fill-rule:nonzero;"/><path d="M46.679,9.454c0,1.75 1.37,3.195 3.18,3.195c0.959,0 1.719,-0.334 2.252,-0.867c0.137,-0.137 0.106,-0.319 0.015,-0.441l-0.761,-0.913c-0.091,-0.106 -0.243,-0.106 -0.38,0c-0.243,0.183 -0.685,0.365 -1.065,0.365c-0.791,0 -1.126,-0.593 -1.171,-1.004l3.651,0c0.137,0 0.274,-0.106 0.289,-0.258c0.015,-0.107 0.031,-0.305 0.031,-0.411c0,-1.674 -1.339,-2.861 -2.891,-2.861c-1.795,0 -3.15,1.476 -3.15,3.195Zm2.267,-0.852c0.061,-0.395 0.411,-0.715 0.822,-0.715c0.396,0 0.776,0.32 0.806,0.715l-1.628,0Z" style="fill-rule:nonzero;"/><path d="M53.815,12.208c0,0.152 0.137,0.289 0.289,0.289l1.674,0c0.152,0 0.289,-0.137 0.289,-0.289l0,-10.072c0,-0.152 -0.137,-0.289 -0.289,-0.289l-1.674,0c-0.152,0 -0.289,0.137 -0.289,0.289l0,10.072Z" style="fill-rule:nonzero;"/><path d="M57.269,9.454c0,1.75 1.293,3.195 3.012,3.195c1.339,0 2.039,-0.958 2.039,-0.958l0.182,0.502c0.061,0.167 0.168,0.304 0.32,0.304l0.715,0c0.152,0 0.289,-0.137 0.289,-0.289l0,-10.072c0,-0.152 -0.137,-0.289 -0.289,-0.289l-1.689,0c-0.152,0 -0.289,0.137 -0.289,0.289l0,4.413c-0.183,-0.107 -0.745,-0.29 -1.263,-0.29c-1.628,0 -3.027,1.05 -3.027,3.195Zm2.084,-0.015c0,-0.684 0.532,-1.217 1.232,-1.217c0.7,0 1.217,0.533 1.217,1.217c0,0.7 -0.517,1.248 -1.217,1.248c-0.7,0 -1.232,-0.548 -1.232,-1.248Z" style="fill-rule:nonzero;"/><path d="M65.058,11.219c0,0.776 0.655,1.43 1.43,1.43c0.792,0 1.461,-0.654 1.461,-1.43c0,-0.791 -0.669,-1.46 -1.461,-1.46c-0.775,0 -1.43,0.669 -1.43,1.46Z" style="fill:#ff6261;"/><path d="M68.74,9.454c0,1.75 1.293,3.195 3.013,3.195c1.338,0 2.038,-0.958 2.038,-0.958l0.183,0.502c0.061,0.167 0.167,0.304 0.319,0.304l0.715,0c0.153,0 0.29,-0.137 0.29,-0.289l0,-10.072c0,-0.152 -0.137,-0.289 -0.29,-0.289l-1.688,0c-0.152,0 -0.289,0.137 -0.289,0.289l0,4.413c-0.183,-0.107 -0.746,-0.29 -1.263,-0.29c-1.628,0 -3.028,1.05 -3.028,3.195Zm2.085,-0.015c0,-0.684 0.532,-1.217 1.232,-1.217c0.7,0 1.217,0.533 1.217,1.217c0,0.7 -0.517,1.248 -1.217,1.248c-0.7,0 -1.232,-0.548 -1.232,-1.248Z" style="fill-rule:nonzero;"/><path d="M76.484,9.454c0,1.75 1.37,3.195 3.18,3.195c0.959,0 1.719,-0.334 2.252,-0.867c0.137,-0.137 0.106,-0.319 0.015,-0.441l-0.761,-0.913c-0.091,-0.106 -0.243,-0.106 -0.38,0c-0.244,0.183 -0.685,0.365 -1.065,0.365c-0.791,0 -1.126,-0.593 -1.172,-1.004l3.652,0c0.137,0 0.274,-0.106 0.289,-0.258c0.015,-0.107 0.03,-0.305 0.03,-0.411c0,-1.674 -1.339,-2.861 -2.89,-2.861c-1.796,0 -3.15,1.476 -3.15,3.195Zm2.267,-0.852c0.061,-0.395 0.411,-0.715 0.822,-0.715c0.395,0 0.776,0.32 0.806,0.715l-1.628,0Z" style="fill-rule:nonzero;"/></g><path d="M11.87,9.18c0,-0.239 -0.058,-0.453 -0.182,-0.64c-0.099,-0.146 -0.263,-0.308 -0.469,-0.47l-2.703,-2.085c-0.231,-0.172 -0.47,-0.257 -0.709,-0.257c-0.528,0 -0.915,0.402 -0.915,0.94c0,0.308 0.132,0.606 0.338,0.769l0.898,0.675l-1.904,0c-1.111,-0.038 -4.723,0.266 -3.166,0.428c0.123,0.012 -0.913,0.162 -0.997,0.339c-0.072,0.151 0.835,0.337 0.605,0.31c-0.306,-0.036 -0.935,0.065 -0.955,0.158c-0.014,0.066 0.536,0.108 0.576,0.189c0.017,0.035 -0.944,0.192 0.054,0.101c0.109,-0.01 -0.229,0.154 -0.28,0.164c-3.034,0.637 2.298,0.592 4.139,0.473l1.953,0l-0.816,0.581c-0.313,0.23 -0.47,0.522 -0.47,0.854c0,0.265 0.091,0.487 0.264,0.667c0.173,0.18 0.379,0.273 0.635,0.273c0.255,0 0.543,-0.102 0.683,-0.238l2.424,-1.846c0.362,-0.265 0.552,-0.419 0.593,-0.462c0.272,-0.239 0.404,-0.539 0.404,-0.889l0,-0.034Z" style="fill-rule:nonzero;"/><path d="M89.24,13.686c0,-0.116 -0.094,-0.211 -0.21,-0.211l-20.87,0c-0.117,0 -0.211,0.095 -0.211,0.211l0,0.421c0,0.116 0.094,0.211 0.211,0.211l20.87,0c0.116,0 0.21,-0.095 0.21,-0.211l0,-0.421Z"/><path d="M88.468,6.259l-1.281,0l-0.932,1.476l-0.8,-1.476l-2.931,0l3.731,6.39l3.73,-6.39l-1.517,0Zm-5.016,0.533l0.896,0l1.907,3.301l1.905,-3.301l0.896,0l-2.801,4.8l-2.803,-4.8Z" style="fill-rule:nonzero;"/></svg>