<?xml version="1.0" encoding="UTF-8" standalone="no"?><!DOCTYPE svg PUBLIC "-//W3C//DTD SVG 1.1//EN" "http://www.w3.org/Graphics/SVG/1.1/DTD/svg11.dtd"><svg width="100%" height="100%" viewBox="0 0 123 30" version="1.1" xmlns="http://www.w3.org/2000/svg" xmlns:xlink="http://www.w3.org/1999/xlink" xml:space="preserve" xmlns:serif="http://www.serif.com/" style="fill-rule:evenodd;clip-rule:evenodd;stroke-linejoin:round;stroke-miterlimit:1.41421;"><rect id="Artboard1" x="-129" y="-128" width="1577.62" height="602.738" style="fill:#fff;"/><g><g><path d="M28.478,21.286l1.642,0.214c-0.179,1.132 -0.639,2.018 -1.378,2.658c-0.739,0.64 -1.647,0.961 -2.723,0.961c-1.349,0 -2.433,-0.441 -3.253,-1.323c-0.819,-0.881 -1.229,-2.145 -1.229,-3.79c0,-1.064 0.176,-1.995 0.529,-2.793c0.352,-0.798 0.889,-1.397 1.61,-1.796c0.72,-0.399 1.505,-0.598 2.352,-0.598c1.07,0 1.945,0.271 2.626,0.812c0.68,0.541 1.116,1.31 1.308,2.306l-1.624,0.25c-0.154,-0.662 -0.428,-1.16 -0.821,-1.494c-0.393,-0.334 -0.867,-0.501 -1.424,-0.501c-0.841,0 -1.525,0.302 -2.051,0.905c-0.526,0.603 -0.788,1.557 -0.788,2.862c0,1.324 0.253,2.286 0.76,2.886c0.508,0.6 1.17,0.9 1.986,0.9c0.656,0 1.203,-0.201 1.643,-0.603c0.439,-0.402 0.717,-1.021 0.835,-1.856Z" style="fill-rule:nonzero;"/><path d="M37.937,23.903c-0.618,0.526 -1.214,0.897 -1.786,1.114c-0.572,0.216 -1.186,0.324 -1.842,0.324c-1.082,0 -1.914,-0.264 -2.496,-0.793c-0.581,-0.529 -0.872,-1.205 -0.872,-2.028c0,-0.482 0.11,-0.923 0.329,-1.322c0.22,-0.399 0.507,-0.719 0.863,-0.96c0.356,-0.241 0.756,-0.424 1.202,-0.548c0.328,-0.086 0.823,-0.17 1.484,-0.25c1.349,-0.161 2.342,-0.353 2.979,-0.575c0.006,-0.229 0.009,-0.375 0.009,-0.437c0,-0.68 -0.158,-1.159 -0.473,-1.438c-0.427,-0.377 -1.061,-0.566 -1.902,-0.566c-0.786,0 -1.366,0.138 -1.74,0.413c-0.374,0.275 -0.651,0.763 -0.83,1.462l-1.634,-0.223c0.149,-0.699 0.393,-1.264 0.733,-1.694c0.341,-0.429 0.833,-0.76 1.476,-0.992c0.643,-0.232 1.389,-0.348 2.236,-0.348c0.841,0 1.525,0.099 2.051,0.297c0.525,0.198 0.912,0.447 1.16,0.747c0.247,0.3 0.42,0.678 0.519,1.136c0.056,0.285 0.084,0.798 0.084,1.541l0,2.226c0,1.553 0.035,2.535 0.106,2.947c0.072,0.411 0.212,0.805 0.423,1.183l-1.745,0c-0.173,-0.347 -0.284,-0.752 -0.334,-1.216Zm-0.139,-3.73c-0.606,0.247 -1.516,0.458 -2.728,0.631c-0.687,0.099 -1.172,0.21 -1.457,0.334c-0.284,0.124 -0.504,0.305 -0.659,0.543c-0.154,0.238 -0.232,0.502 -0.232,0.793c0,0.445 0.169,0.817 0.506,1.114c0.337,0.296 0.831,0.445 1.48,0.445c0.643,0 1.216,-0.141 1.717,-0.422c0.501,-0.282 0.869,-0.667 1.104,-1.155c0.179,-0.378 0.269,-0.935 0.269,-1.671l0,-0.612Z" style="fill-rule:nonzero;"/><path d="M47.638,25.119l0,-1.448c-0.767,1.114 -1.809,1.67 -3.127,1.67c-0.581,0 -1.124,-0.111 -1.628,-0.334c-0.505,-0.222 -0.879,-0.502 -1.123,-0.84c-0.244,-0.337 -0.416,-0.75 -0.515,-1.238c-0.068,-0.328 -0.102,-0.848 -0.102,-1.559l0,-6.106l1.67,0l0,5.466c0,0.872 0.034,1.46 0.102,1.763c0.105,0.439 0.328,0.784 0.668,1.034c0.34,0.251 0.761,0.376 1.262,0.376c0.501,0 0.971,-0.128 1.411,-0.385c0.439,-0.257 0.75,-0.606 0.932,-1.049c0.183,-0.442 0.274,-1.084 0.274,-1.925l0,-5.28l1.67,0l0,9.855l-1.494,0Z" style="fill-rule:nonzero;"/><rect x="50.636" y="11.516" width="1.67" height="13.603" style="fill-rule:nonzero;"/><path d="M54.892,25.119l0,-8.565l-1.485,0l0,-1.29l1.485,0l0,-0.955c0,-0.978 0.21,-1.726 0.631,-2.246c0.42,-0.519 1.085,-0.779 1.995,-0.779c0.612,0 1.178,0.071 1.698,0.213l-0.26,1.411c-0.328,-0.056 -0.628,-0.084 -0.9,-0.084c-0.576,0 -0.968,0.114 -1.179,0.343c-0.21,0.229 -0.315,0.715 -0.315,1.457l0,0.64l1.911,0l0,1.29l-1.911,0l0,8.565l-1.67,0Z"/><path d="M60.574,14.055l-1.358,-1.358l1.18,-1.181l1.359,1.357l-1.181,1.182Z" style="fill:#26d9b9;"/><rect x="59.65" y="15.264" width="1.67" height="9.854"/><path d="M69.877,21.945l1.726,0.214c-0.272,1.008 -0.777,1.79 -1.513,2.347c-0.736,0.557 -1.676,0.835 -2.821,0.835c-1.441,0 -2.584,-0.444 -3.428,-1.331c-0.844,-0.888 -1.267,-2.133 -1.267,-3.735c0,-1.658 0.427,-2.945 1.281,-3.86c0.854,-0.916 1.961,-1.373 3.322,-1.373c1.317,0 2.394,0.448 3.229,1.345c0.835,0.897 1.252,2.159 1.252,3.786c0,0.099 -0.003,0.247 -0.009,0.445l-7.349,0c0.062,1.083 0.368,1.912 0.919,2.487c0.55,0.575 1.237,0.863 2.06,0.863c0.612,0 1.135,-0.161 1.568,-0.483c0.433,-0.321 0.776,-0.835 1.03,-1.54Zm-5.484,-2.7l5.502,0c-0.074,-0.829 -0.284,-1.451 -0.631,-1.865c-0.532,-0.643 -1.221,-0.965 -2.069,-0.965c-0.767,0 -1.412,0.257 -1.934,0.77c-0.523,0.514 -0.812,1.2 -0.868,2.06Z" style="fill-rule:nonzero;"/><rect x="73.206" y="11.516" width="1.67" height="13.603" style="fill-rule:nonzero;"/><path d="M83.588,25.119l0,-1.244c-0.625,0.978 -1.543,1.466 -2.756,1.466c-0.786,0 -1.508,-0.216 -2.167,-0.649c-0.658,-0.433 -1.169,-1.038 -1.531,-1.814c-0.361,-0.777 -0.542,-1.669 -0.542,-2.677c0,-0.984 0.164,-1.876 0.491,-2.677c0.328,-0.801 0.82,-1.415 1.476,-1.842c0.655,-0.427 1.389,-0.64 2.199,-0.64c0.594,0 1.123,0.125 1.587,0.375c0.464,0.251 0.841,0.577 1.132,0.979l0,-4.88l1.661,0l0,13.603l-1.55,0Zm-5.28,-4.918c0,1.262 0.266,2.205 0.798,2.83c0.532,0.625 1.16,0.937 1.884,0.937c0.73,0 1.35,-0.298 1.86,-0.895c0.511,-0.597 0.766,-1.508 0.766,-2.733c0,-1.349 -0.26,-2.338 -0.78,-2.969c-0.519,-0.631 -1.16,-0.947 -1.92,-0.947c-0.743,0 -1.363,0.303 -1.861,0.91c-0.498,0.606 -0.747,1.562 -0.747,2.867Z" style="fill-rule:nonzero;"/><rect x="86.423" y="23.216" width="1.902" height="1.902" style="fill-rule:nonzero;"/><path d="M95.818,24.896l0,-1.243c-0.625,0.977 -1.544,1.466 -2.756,1.466c-0.786,0 -1.508,-0.217 -2.167,-0.65c-0.659,-0.433 -1.169,-1.038 -1.531,-1.814c-0.362,-0.776 -0.543,-1.669 -0.543,-2.677c0,-0.984 0.164,-1.876 0.492,-2.677c0.328,-0.801 0.82,-1.415 1.475,-1.842c0.656,-0.427 1.389,-0.64 2.2,-0.64c0.593,0 1.122,0.125 1.586,0.376c0.464,0.25 0.842,0.577 1.132,0.979l0,-4.881l1.661,0l0,13.603l-1.549,0Zm-5.28,-4.918c0,1.262 0.266,2.205 0.798,2.83c0.532,0.625 1.16,0.937 1.884,0.937c0.729,0 1.35,-0.298 1.86,-0.895c0.51,-0.597 0.765,-1.508 0.765,-2.733c0,-1.348 -0.259,-2.338 -0.779,-2.969c-0.52,-0.631 -1.16,-0.946 -1.921,-0.946c-0.742,0 -1.362,0.303 -1.86,0.909c-0.498,0.606 -0.747,1.562 -0.747,2.867Z" style="fill-rule:nonzero;"/><path d="M105.521,21.945l1.726,0.214c-0.272,1.008 -0.776,1.79 -1.512,2.347c-0.737,0.557 -1.677,0.835 -2.821,0.835c-1.442,0 -2.584,-0.444 -3.429,-1.331c-0.844,-0.888 -1.266,-2.133 -1.266,-3.735c0,-1.658 0.426,-2.945 1.28,-3.86c0.854,-0.916 1.961,-1.373 3.322,-1.373c1.318,0 2.394,0.448 3.229,1.345c0.835,0.897 1.253,2.159 1.253,3.786c0,0.099 -0.003,0.247 -0.01,0.445l-7.349,0c0.062,1.083 0.369,1.912 0.919,2.487c0.551,0.575 1.237,0.863 2.06,0.863c0.612,0 1.135,-0.161 1.568,-0.483c0.433,-0.321 0.776,-0.835 1.03,-1.54Zm-5.484,-2.7l5.503,0c-0.075,-0.829 -0.285,-1.451 -0.631,-1.865c-0.532,-0.643 -1.222,-0.965 -2.07,-0.965c-0.767,0 -1.411,0.257 -1.934,0.77c-0.523,0.514 -0.812,1.2 -0.868,2.06Z" style="fill-rule:nonzero;"/><path d="M111.117,25.119l-3.749,-9.855l1.763,0l2.116,5.902c0.229,0.637 0.439,1.299 0.631,1.985c0.148,-0.519 0.356,-1.144 0.622,-1.874l2.189,-6.013l1.717,0l-3.73,9.855l-1.559,0Z" style="fill-rule:nonzero;"/></g><path d="M20.103,19.717c0,-0.34 -0.082,-0.643 -0.258,-0.909c-0.14,-0.206 -0.374,-0.437 -0.666,-0.667l-3.835,-2.958c-0.328,-0.243 -0.667,-0.364 -1.006,-0.364c-0.748,0 -1.298,0.57 -1.298,1.334c0,0.436 0.187,0.86 0.48,1.091l1.274,0.957l-2.701,0c-1.577,-0.053 -6.702,0.378 -4.493,0.607c0.175,0.018 -1.295,0.23 -1.414,0.481c-0.102,0.215 1.185,0.478 0.858,0.44c-0.433,-0.051 -1.326,0.092 -1.354,0.225c-0.02,0.093 0.76,0.153 0.817,0.267c0.024,0.05 -1.339,0.273 0.076,0.144c0.155,-0.014 -0.324,0.218 -0.397,0.233c-4.304,0.904 3.26,0.839 5.872,0.671l2.771,0l-1.157,0.824c-0.445,0.327 -0.667,0.74 -0.667,1.212c0,0.376 0.129,0.691 0.374,0.946c0.246,0.255 0.538,0.388 0.901,0.388c0.362,0 0.771,-0.145 0.97,-0.339l3.438,-2.619c0.514,-0.376 0.783,-0.594 0.842,-0.655c0.386,-0.339 0.573,-0.764 0.573,-1.261l0,-0.048Z" style="fill:#5733cc;fill-rule:nonzero;"/><path d="M116.406,26.317c0.025,-0.003 0.127,0.003 0.137,0c0.031,-0.011 0.375,-0.029 0.311,-0.048c-0.041,-0.011 -0.493,-0.023 -0.502,-0.033c-0.011,-0.012 0.543,-0.026 -0.031,-0.035c-0.039,0 -0.03,-0.047 0.039,-0.024c0.351,0.117 -0.113,-0.098 -0.192,-0.098l-27.109,0c-0.131,0 -0.238,0.107 -0.238,0.238l0,0.475c0,0.131 0.107,0.237 0.238,0.237l27.109,0c0.031,0 0.811,-0.343 0.161,-0.063c-0.091,0.039 0.396,-0.098 0.468,-0.149c0.059,-0.041 -0.285,-0.003 -0.403,0.049c-0.006,0.003 0.019,-0.02 0.051,-0.049c0.015,-0.013 0.428,-0.118 0.443,-0.133c0.008,-0.007 -0.382,0.077 -0.375,0.07c0.05,-0.05 0.064,-0.075 -0.107,0.038l0.056,-0.078l0.018,-0.017l0.015,-0.013l0.017,-0.029l0.031,-0.055l-0.119,0.046l0.192,-0.057l0.117,-0.035l-0.129,-0.043l-0.077,-0.025l-0.032,0l-0.047,-0.027l0.095,-0.095l-0.137,-0.006l0,-0.041Z" style="fill:#999;"/></g></svg>